<?xml version="1.0" encoding="utf-8"?>
<!-- Generator: Adobe Illustrator 24.1.2, SVG Export Plug-In . SVG Version: 6.00 Build 0)  -->
<svg version="1.1" id="Слой_1" xmlns="http://www.w3.org/2000/svg" xmlns:xlink="http://www.w3.org/1999/xlink" x="0px" y="0px"
	 viewBox="0 0 568.1 75.9" style="enable-background:new 0 0 568.1 75.9;" xml:space="preserve">
<style type="text/css">
	.st0{fill:#F85353;}
	.st1{fill:#F7F7F7;}
</style>
<g>
	<path class="st0" d="M0,64.9c1.4-2.4,2.6-4.7,3.6-6.4c5.7,2.5,11,5.8,16.8,7.1c5.7,1.2,11.9,1,17.7,0.2c5.3-0.7,7.9-4.3,8.2-8.8
		c0.4-4.9-1.5-8.3-6.8-10.4c-5.4-2.1-11.1-3.5-16.7-5.3c-2.7-0.8-5.5-1.5-8.2-2.6C8.4,36.5,3.6,32.8,2.8,25.8
		c-0.9-8,1.4-14.8,8.3-19.5C22.6-1.5,42.3,0.2,52.8,10c-1.2,2.2-2.5,4.4-3.3,5.9c-5.8-2.1-11.2-4.6-16.9-5.9
		c-3.6-0.8-7.7-0.2-11.5,0.5c-5.2,1-8.4,5-8.7,9.8c-0.3,5.5,1.7,8.7,7.3,10.7c4.6,1.6,9.4,2.5,14.1,3.8c3.8,1.1,7.7,2.2,11.3,3.7
		c7.5,3.1,11.3,8.7,11.2,16.8C56.1,63.9,52,69.7,44.2,73C30.9,78.5,10.9,74.9,0,64.9z"/>
	<path class="st0" d="M76.3,74.7c-3.2,0-5.9,0-8.8,0c0-24.9,0-49.7,0-74.6c2.8,0,5.6,0,8.7,0c0,10.4,0,20.8,0,31.2
		c3.1-2.7,5.6-5.6,8.8-7.6c13-8.1,26.6-2.4,28.2,12.6c1.3,12.6,0.3,25.4,0.3,38.4c-2.6,0-5.3,0-8.4,0c-0.1-1.2-0.2-2.4-0.2-3.5
		c0-8.3,0-16.6,0-24.9c0-1.4,0.1-2.7-0.1-4.1c-0.5-5.2-1.3-10.5-6.8-12.7c-5.8-2.4-11.1-0.1-15.5,3.8c-4.1,3.6-6.4,7.9-6.2,13.7
		C76.5,55.9,76.3,65.1,76.3,74.7z"/>
	<path class="st1" d="M567.9,51.1c-14.9,0-29.6,0-44.3,0c0.2,8.2,5.5,15,13.2,17.2c7.5,2.2,15.3-0.9,20.2-8.1c2.4,0.6,4.8,1.3,7.3,2
		c-3.1,9.4-17.3,16.5-30.7,12.6c-14.2-4.1-22.6-18.3-19.3-32.8c3.4-14.8,17.1-23.8,32.4-21.2C559.8,23,569.4,36.4,567.9,51.1z
		 M559.3,44.4c-0.9-10.8-9.5-17.9-19.8-17.2c-8.5,0.6-17,9-15.9,17.2C535.5,44.4,547.3,44.4,559.3,44.4z"/>
	<path class="st0" d="M178.7,51.1c-14.8,0-29.4,0-43.9,0c-0.3,7.7,4.7,14.5,12.3,17c7.4,2.5,15.6-0.5,21-7.9c2.3,0.6,4.6,1.3,7,1.9
		c-2.6,9.5-16.9,15.8-29.1,13.1c-14.8-3.3-23.9-17.8-20.8-33.3c2.9-14.5,17.2-23.8,32.5-21.1C170.9,23.1,180.5,36.5,178.7,51.1z
		 M170,44.3c-0.1-9.4-8-17-17.7-17.1c-9.9-0.1-17.7,7.2-18.1,17.1C146.2,44.3,158.1,44.3,170,44.3z"/>
	<path class="st0" d="M304.6,51.2c-14.5,0-29.1,0-43.7,0c-0.3,7.2,4.6,14.2,11.6,16.7c8,2.9,15.6,0.2,21.7-7.7
		c2.2,0.6,4.6,1.3,6.9,1.9c-2.6,9.1-16.5,16.3-29.9,12.8c-15.2-3.9-23.2-18.2-19.7-33.5c3.6-16.1,18.5-23.6,33.1-20.4
		C298.3,24.1,307.8,38.6,304.6,51.2z M296.4,44.3c-1-10.5-8.7-17.5-18.9-17.1c-9.6,0.4-16.9,7.8-16.9,17.1
		C272.5,44.3,284.4,44.3,296.4,44.3z"/>
	<path class="st1" d="M457,44.7C457.9,34,454,28.1,445.2,27c-5.8-0.7-11,1.3-16,4.1c-1,0.5-1.9,1.1-3.3,2c-1-1.8-2-3.6-2.9-5.3
		c9.5-8.3,26.3-9.8,35.5-3.2c5.4,3.9,7.5,9.5,7.7,15.7c0.3,7.1,0.1,14.1,0.2,21.2c0,2.1-0.2,4,2.2,5.8c1.4,1,0.7,4.7,0.9,7.1
		c-7.4,2-10,0.2-11-6.6c-4.3,2.2-8.7,5-13.4,6.8c-5.2,1.9-10.7,2-16-0.6c-6.3-3.1-9.7-8.1-9.7-15.1c0-6.4,4.5-11.9,11.2-14.3
		c7.8-2.8,15.7-2.4,23.5-0.4c0.8,0.2,1.7,0.4,2.5,0.6C456.7,44.8,456.9,44.7,457,44.7z M457,50.7c-7.4-2.8-16.1-3.4-21.6-1.4
		c-4.8,1.8-7.5,5.3-7.4,9.5c0.1,4.5,3.2,8.3,7.9,9.6c5.9,1.6,11.4,0,16.3-3.2C457.5,61.8,457.7,56.5,457,50.7z"/>
	<path class="st0" d="M230.6,21.3c4.5,0,8.1,0,11.8,0c0,2.3,0,4.4,0,6.9c-3.9,0-7.7,0-11.9,0c0,7.5,0,14.5,0,21.5
		c0,3.5,0,6.9,0,10.4c0.1,5.5,2.6,7.6,8.1,6.8c1.9-0.3,3.8-1,6-1.6c0.6,2.2,1.3,4.2,2,6.7c-5.9,3-11.9,4.7-18.3,2.6
		c-4.1-1.4-6.8-4.3-6.8-8.8c-0.2-10.9-0.2-21.8-0.2-32.7c0-1.5,0-2.9,0-4.7c-2.4,0-4.5,0-6.9,0c0-2.5,0-4.6,0-7
		c2.1-0.1,4.1-0.2,6.7-0.4c0-5.8,0-11.5,0-17.4c3.3,0,6.1,0,9.5,0C230.6,9.4,230.6,15.2,230.6,21.3z"/>
	<path class="st0" d="M189.5,0c3.1,0,5.8,0,9.1,0c0,1.3,0,2.6,0,3.9c0,17.6,0,35.2,0,52.8c0,10,1.7,11.4,11.6,9.7
		c0.3,1.2,0.7,2.3,0.9,3.5c0.2,1.1,0.2,2.2,0.4,3.9c-3.8,0.6-7.4,1.6-11.1,1.6c-7.1,0-10.8-4.1-10.9-11.4c-0.1-19.3,0-38.7,0-58
		C189.5,4.1,189.5,2.3,189.5,0z"/>
	<path class="st1" d="M509.3,20.8c0,2.9,0,5.4,0,7.9c-2.8,0.8-5.8,1.3-8.5,2.4c-7.6,2.9-10.7,7.6-10.7,15.5c0,9.3,0,18.5,0,28
		c-3.1,0-5.9,0-9,0c0-17.7,0-35.2,0-53.1c2.6,0,5.2,0,8.1,0c0,3.5,0,7.1,0,11.7C494.4,25.7,500,20.5,509.3,20.8z"/>
	<path class="st1" d="M350.2,42.7c3.2,0,6.1,0,9.1,0c2.5,11.7,8.3,21,20.4,23.7c11.2,2.5,20.3-1.9,26-12.1c2.5,1.4,4.9,2.7,7.3,3.9
		c-3.5,10.8-18,18.3-32.7,16.9C365.7,73.8,352,59.1,350.2,42.7z"/>
	<path class="st1" d="M359.3,33.8c-3.1,0-6,0-9,0c0.3-14.6,12.4-28.7,26.9-31.6c15-3,28.9,3.1,34.5,15.2c-2.2,1.5-4.5,3-7,4.6
		c-5.7-10.1-14.6-13.9-25.5-11.6C367,13.1,361.7,22.3,359.3,33.8z"/>
	<path class="st0" d="M323.8,21.4c0,3.8,0,7.4,0,11.9c5.2-7.5,10.7-12.9,20.1-12.5c0,2.8,0,5.4,0,7.6c-3.6,1.2-7.2,1.8-10.4,3.5
		c-5.6,2.9-9.1,7.3-8.9,14.2c0.3,9.4,0.1,18.8,0.1,28.5c-3,0-5.8,0-8.8,0c0-17.7,0-35.4,0-53.2C318.4,21.4,320.8,21.4,323.8,21.4z"
		/>
</g>
</svg>
